<svg xmlns="http://www.w3.org/2000/svg" viewBox="0 0 435.06 435.06"><defs><linearGradient id="a9eff3a1e-7289-4522-960b-f0160f769181" x1="462.56" y1="132.08" x2="204.65" y2="351.69" gradientUnits="userSpaceOnUse"><stop offset="0" stop-color="#1eccfe"/><stop offset="1" stop-color="#1b43c4"/></linearGradient><linearGradient id="bb5376dba-1c2a-4dfc-88ad-7e61ba1381df" x1="323.28" y1="-31.49" x2="65.37" y2="188.13" gradientUnits="userSpaceOnUse"><stop offset="0" stop-color="#1eccfe"/><stop offset="1" stop-color="#1b43c4"/></linearGradient><linearGradient id="cacb490f2-6e54-4d08-8cfc-f6ba27465d24" x1="-2.22" y1="344.95" x2="61.47" y2="332.55" gradientUnits="userSpaceOnUse"><stop offset="0" stop-color="#fdba24"/><stop offset="1" stop-color="#f05d22"/></linearGradient><linearGradient id="ddcca34d6-69cb-4e51-ac39-4813d8c6898d" x1="87.67" y1="450.03" x2="101.94" y2="376.53" gradientUnits="userSpaceOnUse"><stop offset="0" stop-color="#fdba24"/><stop offset="1" stop-color="#f05d22"/></linearGradient><linearGradient id="ecbac7c8e-b8d2-409d-9f9e-2b21d510e965" x1="409.79" y1="900.73" x2="551.74" y2="762.22" gradientUnits="userSpaceOnUse"><stop offset="0" stop-color="#fdba24"/><stop offset="1" stop-color="#f05d22"/></linearGradient><linearGradient id="f431dfa1c-0998-4214-a059-6ba03223b0c7" x1="826.23" y1="486.98" x2="500.47" y2="812.75" gradientUnits="userSpaceOnUse"><stop offset="0" stop-color="#fdba24"/><stop offset="1" stop-color="#f05d22"/></linearGradient></defs><g><path fill="url(#a9eff3a1e-7289-4522-960b-f0160f769181)" d="M347.46 183.8l45.93-142.13-142.77 244.15 184.44 18.96-87.6-120.98z"/><path fill="url(#bb5376dba-1c2a-4dfc-88ad-7e61ba1381df)" d="M251.26 87.6L130.28 0l18.96 184.45L393.39 41.67 251.26 87.6z"/><path fill="url(#cacb490f2-6e54-4d08-8cfc-f6ba27465d24)" d="M78.13 301.87L0 369.03l44.18-5.67 33.95-61.49z"/><path fill="url(#ddcca34d6-69cb-4e51-ac39-4813d8c6898d)" d="M133.19 356.93l-67.16 78.13 5.68-44.17 61.48-33.96z"/><path d="M548.74 819.53a38.93 38.93 0 0 0-55.06-55.06C467.31 790.85 434.17 879 434.17 879s88.2-33.13 114.57-59.51z" transform="translate(-415.55 -462.6)" fill="url(#ecbac7c8e-b8d2-409d-9f9e-2b21d510e965)"/><path d="M576.52 775.86l18.41-18.41a27.69 27.69 0 1 0-39.17-39.16l-18.41 18.41L424.9 700l384-195.68-195.64 384z" transform="translate(-415.55 -462.6)" fill="url(#f431dfa1c-0998-4214-a059-6ba03223b0c7)"/></g></svg>